<svg width="28" height="31" viewBox="0 0 28 31" fill="none" xmlns="http://www.w3.org/2000/svg">
<path d="M22.8473 29.7526C21.0831 31.3844 19.1366 31.1302 17.2813 30.3606C15.3088 29.5758 13.5056 29.5262 11.4224 30.3606C8.82824 31.4279 7.4514 31.1177 5.88903 29.7526C-2.93185 21.097 -1.62988 7.912 8.39533 7.41562C10.8268 7.53972 12.5291 8.6969 13.9613 8.79307C16.09 8.38046 18.1276 7.19846 20.406 7.35357C23.1434 7.56454 25.1908 8.59452 26.5579 10.4466C20.9268 13.6731 22.2614 20.7465 27.4335 22.732C26.3983 25.3225 25.0703 27.882 22.8441 29.7744L22.8473 29.7526ZM13.766 7.32255C13.5023 3.47562 16.7735 0.311213 20.5362 0.000976562C21.0538 4.43735 16.3048 7.75688 13.766 7.32255Z" fill="white"/>
</svg>
