<svg width="31" height="31" viewBox="0 0 31 31" fill="none" xmlns="http://www.w3.org/2000/svg">
<path d="M30.8153 15.8571C30.8153 14.8034 30.7286 13.7441 30.5437 12.7075H15.7178V18.6763H24.2079C23.8555 20.6013 22.7236 22.3043 21.066 23.3863V27.2592H26.1312C29.1057 24.5596 30.8153 20.5729 30.8153 15.8571Z" fill="#4285F4"/>
<path d="M15.7182 31.001C19.9574 31.001 23.5326 29.6284 26.1373 27.2591L21.0721 23.3862C19.6629 24.3317 17.8436 24.8671 15.7239 24.8671C11.6232 24.8671 8.14634 22.1389 6.89881 18.4712H1.67188V22.4636C4.34022 27.6978 9.77506 31.001 15.7182 31.001Z" fill="#34A853"/>
<path d="M6.89318 18.4713C6.23476 16.5462 6.23476 14.4617 6.89318 12.5367V8.54419H1.67204C-0.557346 12.924 -0.557346 18.084 1.67204 22.4636L6.89318 18.4713Z" fill="#FBBC04"/>
<path d="M15.7182 6.13498C17.9591 6.10081 20.1249 6.93232 21.7479 8.45871L26.2355 4.03337C23.394 1.40211 19.6224 -0.0445185 15.7182 0.00104452C9.77504 0.00104452 4.34022 3.30437 1.67188 8.54413L6.89302 12.5366C8.13477 8.86306 11.6175 6.13498 15.7182 6.13498Z" fill="#EA4335"/>
</svg>
