<svg width="469" height="128" viewBox="0 0 469 128" fill="none" xmlns="http://www.w3.org/2000/svg">
<path d="M0.194063 1.99999H56.3541V5.41999H45.9141V61.22H81.7341V5.41999H71.1141V1.99999H127.454V5.41999H116.834V124.58H127.454V128H71.1141V124.58H81.7341V65.9H45.9141V124.58H56.3541V128H0.194063V124.58H10.8141V5.41999H0.194063V1.99999ZM208.998 124.58L195.858 85.7H160.218L146.358 124.58H159.858V128H132.318V124.58H140.778L186.678 0.919995H201.438L246.798 124.58H255.078V128H196.218V124.58H208.998ZM178.758 34.58L161.838 81.74H194.418L178.758 34.58ZM355.081 1.99999V5.95999L301.801 123.86H307.921C318.721 123.86 328.201 120.44 336.361 113.6C344.641 106.64 350.581 96.8 354.181 84.08H357.421L355.261 128H263.101V124.58L316.921 5.95999H309.541C298.861 5.95999 290.761 8.29999 285.241 12.98C279.721 17.66 273.481 27.26 266.521 41.78H263.281L265.981 1.99999H355.081ZM368.456 1.99999H462.056L463.856 37.64H460.616C455.576 25.52 450.296 17.24 444.776 12.8C439.256 8.23999 431.156 5.95999 420.476 5.95999H414.176V61.58H420.296C425.936 61.58 430.676 59.48 434.516 55.28C438.356 50.96 441.056 45.2 442.616 38H445.316V91.28H442.256C440.096 82.28 437.156 75.86 433.436 72.02C429.836 68.18 424.856 66.26 418.496 66.26H414.176V124.04H421.016C432.056 124.04 441.416 120.74 449.096 114.14C456.896 107.54 462.236 99.08 465.116 88.76H468.716L467.276 128H368.456V124.04H379.076V5.95999H368.456V1.99999Z" fill="#B9BBC1"/>
</svg>
