<svg width="95" height="26" viewBox="0 0 95 26" fill="none" xmlns="http://www.w3.org/2000/svg">
<path d="M0.756 0.799998H11.988V1.484H9.9V12.644H17.064V1.484H14.94V0.799998H26.208V1.484H24.084V25.316H26.208V26H14.94V25.316H17.064V13.58H9.9V25.316H11.988V26H0.756V25.316H2.88V1.484H0.756V0.799998ZM42.5168 25.316L39.8888 17.54H32.7608L29.9888 25.316H32.6888V26H27.1808V25.316H28.8728L38.0528 0.583999H41.0048L50.0768 25.316H51.7328V26H39.9608V25.316H42.5168ZM36.4688 7.316L33.0848 16.748H39.6008L36.4688 7.316ZM71.7334 0.799998V1.592L61.0774 25.172H62.3014C64.4614 25.172 66.3574 24.488 67.9894 23.12C69.6454 21.728 70.8334 19.76 71.5534 17.216H72.2014L71.7694 26H53.3374V25.316L64.1014 1.592H62.6254C60.4894 1.592 58.8694 2.06 57.7654 2.996C56.6614 3.932 55.4134 5.852 54.0214 8.756H53.3734L53.9134 0.799998H71.7334ZM74.4083 0.799998H93.1283L93.4883 7.928H92.8403C91.8323 5.504 90.7763 3.848 89.6723 2.96C88.5683 2.048 86.9483 1.592 84.8123 1.592H83.5523V12.716H84.7763C85.9043 12.716 86.8523 12.296 87.6203 11.456C88.3883 10.592 88.9283 9.44 89.2403 8H89.7803V18.656H89.1683C88.7363 16.856 88.1483 15.572 87.4043 14.804C86.6843 14.036 85.6883 13.652 84.4163 13.652H83.5523V25.208H84.9203C87.1283 25.208 89.0003 24.548 90.5363 23.228C92.0963 21.908 93.1643 20.216 93.7403 18.152H94.4603L94.1723 26H74.4083V25.208H76.5323V1.592H74.4083V0.799998Z" fill="black"/>
</svg>
