<svg width="441" height="28" viewBox="0 0 441 28" fill="none" xmlns="http://www.w3.org/2000/svg">
<path d="M11.4761 20.506L9.57814 14.89H4.43014L2.42814 20.506H4.37814V21H0.400141V20.506H1.62214L8.25214 2.644H10.3841L16.9361 20.506H18.1321V21H9.63014V20.506H11.4761ZM7.10814 7.506L4.66414 14.318H9.37014L7.10814 7.506ZM24.5288 17.282V9.092H23.0988V8.624H24.5288V5.27L29.3648 4.074V8.624H32.7448V9.092H29.3648V17.854C29.3648 18.6687 29.4428 19.2667 29.5988 19.648C29.7721 20.0293 30.1188 20.22 30.6388 20.22C31.1588 20.22 31.6094 19.96 31.9908 19.44C32.3894 18.92 32.6494 18.2093 32.7708 17.308L33.2128 17.36C33.0741 18.556 32.6928 19.5093 32.0688 20.22C31.4448 20.9133 30.4134 21.26 28.9748 21.26C27.5361 21.26 26.4354 20.974 25.6728 20.402C24.9101 19.83 24.5288 18.79 24.5288 17.282ZM37.2832 6.83C36.3645 6.83 35.7058 6.596 35.3072 6.128C34.9258 5.66 34.7352 5.07933 34.7352 4.386C34.7352 3.69267 34.9432 3.12067 35.3592 2.67C35.7925 2.21933 36.4425 1.994 37.3092 1.994C38.1758 1.994 38.8345 2.202 39.2852 2.618C39.7358 3.01667 39.9612 3.59733 39.9612 4.36C39.9612 5.10533 39.7445 5.70333 39.3112 6.154C38.8778 6.60467 38.2018 6.83 37.2832 6.83ZM33.3572 8.624H39.7272V20.532H41.1832V21H33.4612V20.532H34.8912V9.092H33.3572V8.624ZM41.7131 8.624H47.9791V11.016C48.5511 9.248 49.8078 8.364 51.7491 8.364C53.7078 8.364 54.8951 9.3 55.3111 11.172C55.9178 9.3 57.1918 8.364 59.1331 8.364C61.6811 8.364 62.9551 9.81133 62.9551 12.706V20.532H64.4111V21H57.2091V20.532H58.1191V12.082C58.1191 10.7647 58.0065 9.99333 57.7811 9.768C57.6771 9.664 57.5385 9.612 57.3651 9.612C56.8625 9.612 56.4205 9.95 56.0391 10.626C55.6578 11.302 55.4671 12.16 55.4671 13.2V20.532H56.4031V21H49.7211V20.532H50.6311V12.082C50.6311 10.7647 50.5185 9.99333 50.2931 9.768C50.1891 9.664 50.0505 9.612 49.8771 9.612C49.3918 9.612 48.9498 9.98467 48.5511 10.73C48.1698 11.458 47.9791 12.3333 47.9791 13.356V20.532H48.9151V21H41.7131V20.532H43.1431V9.092H41.7131V8.624ZM71.6312 21.26C69.3952 21.26 67.7139 20.688 66.5872 19.544C65.4779 18.3827 64.9232 16.7793 64.9232 14.734C64.9232 12.6713 65.5472 11.094 66.7952 10.002C68.0605 8.91 69.6639 8.364 71.6052 8.364C75.5399 8.364 77.4292 10.34 77.2732 14.292H69.9412V15.306C69.9412 17.0047 70.1579 18.2873 70.5912 19.154C71.0245 20.0207 71.7785 20.454 72.8532 20.454C74.8639 20.454 76.1812 19.3793 76.8052 17.23L77.2732 17.308C76.9439 18.556 76.3459 19.5267 75.4792 20.22C74.6299 20.9133 73.3472 21.26 71.6312 21.26ZM69.9672 13.772H72.6452V12.498C72.6452 11.094 72.5585 10.1407 72.3852 9.638C72.2292 9.118 71.8999 8.858 71.3972 8.858C70.9119 8.858 70.5479 9.13533 70.3052 9.69C70.0799 10.2273 69.9672 11.1633 69.9672 12.498V13.772ZM78.0955 1.5H84.4655V20.532H85.9215V21H78.1995V20.532H79.6295V1.968H78.0955V1.5ZM93.264 21.26C91.028 21.26 89.3467 20.688 88.22 19.544C87.1107 18.3827 86.556 16.7793 86.556 14.734C86.556 12.6713 87.18 11.094 88.428 10.002C89.6933 8.91 91.2967 8.364 93.238 8.364C97.1727 8.364 99.062 10.34 98.906 14.292H91.574V15.306C91.574 17.0047 91.7907 18.2873 92.224 19.154C92.6573 20.0207 93.4113 20.454 94.486 20.454C96.4967 20.454 97.814 19.3793 98.438 17.23L98.906 17.308C98.5767 18.556 97.9787 19.5267 97.112 20.22C96.2627 20.9133 94.98 21.26 93.264 21.26ZM91.6 13.772H94.278V12.498C94.278 11.094 94.1913 10.1407 94.018 9.638C93.862 9.118 93.5327 8.858 93.03 8.858C92.5447 8.858 92.1807 9.13533 91.938 9.69C91.7127 10.2273 91.6 11.1633 91.6 12.498V13.772ZM100.176 21.26V16.606H100.488C100.939 18.114 101.546 19.1713 102.308 19.778C103.071 20.3847 104.024 20.688 105.168 20.688C106.936 20.688 107.82 20.1247 107.82 18.998C107.82 18.5127 107.604 18.1487 107.17 17.906C106.494 17.5247 105.628 17.23 104.57 17.022C103.392 16.71 102.404 16.294 101.606 15.774C100.653 15.15 100.176 14.162 100.176 12.81C100.176 11.458 100.592 10.3833 101.424 9.586C102.256 8.77133 103.366 8.364 104.752 8.364C105.602 8.364 106.477 8.56333 107.378 8.962C107.708 9.10067 107.959 9.17 108.132 9.17C108.306 9.17 108.453 9.10933 108.574 8.988C108.696 8.86667 108.843 8.64133 109.016 8.312H109.302V12.29H108.99C108.106 10.0367 106.737 8.91 104.882 8.91C104.068 8.91 103.461 9.05733 103.062 9.352C102.664 9.62933 102.464 9.98467 102.464 10.418C102.464 10.678 102.525 10.886 102.646 11.042C102.768 11.1807 102.863 11.2847 102.932 11.354C103.002 11.4233 103.114 11.5013 103.27 11.588C103.426 11.6573 103.556 11.718 103.66 11.77C103.764 11.8047 103.92 11.8567 104.128 11.926C104.354 11.9953 104.518 12.0387 104.622 12.056C105.801 12.3507 106.65 12.6107 107.17 12.836C107.69 13.044 108.184 13.304 108.652 13.616C109.606 14.2747 110.082 15.3407 110.082 16.814C110.082 18.27 109.649 19.3793 108.782 20.142C107.916 20.8873 106.728 21.26 105.22 21.26C104.146 21.26 103.106 21.0087 102.1 20.506C101.892 20.3673 101.728 20.298 101.606 20.298C101.225 20.298 100.852 20.6187 100.488 21.26H100.176ZM111.45 21.26V16.606H111.762C112.212 18.114 112.819 19.1713 113.582 19.778C114.344 20.3847 115.298 20.688 116.442 20.688C118.21 20.688 119.094 20.1247 119.094 18.998C119.094 18.5127 118.877 18.1487 118.444 17.906C117.768 17.5247 116.901 17.23 115.844 17.022C114.665 16.71 113.677 16.294 112.88 15.774C111.926 15.15 111.45 14.162 111.45 12.81C111.45 11.458 111.866 10.3833 112.698 9.586C113.53 8.77133 114.639 8.364 116.026 8.364C116.875 8.364 117.75 8.56333 118.652 8.962C118.981 9.10067 119.232 9.17 119.406 9.17C119.579 9.17 119.726 9.10933 119.848 8.988C119.969 8.86667 120.116 8.64133 120.29 8.312H120.576V12.29H120.264C119.38 10.0367 118.01 8.91 116.156 8.91C115.341 8.91 114.734 9.05733 114.336 9.352C113.937 9.62933 113.738 9.98467 113.738 10.418C113.738 10.678 113.798 10.886 113.92 11.042C114.041 11.1807 114.136 11.2847 114.206 11.354C114.275 11.4233 114.388 11.5013 114.544 11.588C114.7 11.6573 114.83 11.718 114.934 11.77C115.038 11.8047 115.194 11.8567 115.402 11.926C115.627 11.9953 115.792 12.0387 115.896 12.056C117.074 12.3507 117.924 12.6107 118.444 12.836C118.964 13.044 119.458 13.304 119.926 13.616C120.879 14.2747 121.356 15.3407 121.356 16.814C121.356 18.27 120.922 19.3793 120.056 20.142C119.189 20.8873 118.002 21.26 116.494 21.26C115.419 21.26 114.379 21.0087 113.374 20.506C113.166 20.3673 113.001 20.298 112.88 20.298C112.498 20.298 112.126 20.6187 111.762 21.26H111.45ZM127.395 21.26V16.606H127.707C128.158 18.114 128.764 19.1713 129.527 19.778C130.29 20.3847 131.243 20.688 132.387 20.688C134.155 20.688 135.039 20.1247 135.039 18.998C135.039 18.5127 134.822 18.1487 134.389 17.906C133.713 17.5247 132.846 17.23 131.789 17.022C130.61 16.71 129.622 16.294 128.825 15.774C127.872 15.15 127.395 14.162 127.395 12.81C127.395 11.458 127.811 10.3833 128.643 9.586C129.475 8.77133 130.584 8.364 131.971 8.364C132.82 8.364 133.696 8.56333 134.597 8.962C134.926 9.10067 135.178 9.17 135.351 9.17C135.524 9.17 135.672 9.10933 135.793 8.988C135.914 8.86667 136.062 8.64133 136.235 8.312H136.521V12.29H136.209C135.325 10.0367 133.956 8.91 132.101 8.91C131.286 8.91 130.68 9.05733 130.281 9.352C129.882 9.62933 129.683 9.98467 129.683 10.418C129.683 10.678 129.744 10.886 129.865 11.042C129.986 11.1807 130.082 11.2847 130.151 11.354C130.22 11.4233 130.333 11.5013 130.489 11.588C130.645 11.6573 130.775 11.718 130.879 11.77C130.983 11.8047 131.139 11.8567 131.347 11.926C131.572 11.9953 131.737 12.0387 131.841 12.056C133.02 12.3507 133.869 12.6107 134.389 12.836C134.909 13.044 135.403 13.304 135.871 13.616C136.824 14.2747 137.301 15.3407 137.301 16.814C137.301 18.27 136.868 19.3793 136.001 20.142C135.134 20.8873 133.947 21.26 132.439 21.26C131.364 21.26 130.324 21.0087 129.319 20.506C129.111 20.3673 128.946 20.298 128.825 20.298C128.444 20.298 128.071 20.6187 127.707 21.26H127.395ZM139.117 17.282V9.092H137.687V8.624H139.117V5.27L143.953 4.074V8.624H147.333V9.092H143.953V17.854C143.953 18.6687 144.031 19.2667 144.187 19.648C144.36 20.0293 144.707 20.22 145.227 20.22C145.747 20.22 146.197 19.96 146.579 19.44C146.977 18.92 147.237 18.2093 147.359 17.308L147.801 17.36C147.662 18.556 147.281 19.5093 146.657 20.22C146.033 20.9133 145.001 21.26 143.563 21.26C142.124 21.26 141.023 20.974 140.261 20.402C139.498 19.83 139.117 18.79 139.117 17.282ZM154.289 14.89H155.043V12.888C155.043 11.2413 154.948 10.1407 154.757 9.586C154.584 9.014 154.237 8.728 153.717 8.728C153.405 8.728 153.119 8.81467 152.859 8.988C152.616 9.144 152.495 9.36933 152.495 9.664C152.495 9.94133 152.547 10.2273 152.651 10.522H153.301C153.44 10.886 153.509 11.328 153.509 11.848C153.509 12.3507 153.292 12.7927 152.859 13.174C152.426 13.538 151.88 13.72 151.221 13.72C149.73 13.72 148.985 13.0007 148.985 11.562C148.985 9.43 150.796 8.364 154.419 8.364C156.482 8.364 157.903 8.71933 158.683 9.43C159.48 10.1233 159.879 11.406 159.879 13.278V18.556C159.879 19.4573 160.13 19.908 160.633 19.908C161.222 19.908 161.569 19.0153 161.673 17.23L162.063 17.256C161.994 18.7813 161.708 19.83 161.205 20.402C160.702 20.974 159.879 21.26 158.735 21.26C156.655 21.26 155.459 20.6187 155.147 19.336C154.922 19.9947 154.584 20.48 154.133 20.792C153.682 21.104 153.024 21.26 152.157 21.26C149.592 21.26 148.309 20.2113 148.309 18.114C148.309 16.8833 148.794 16.0427 149.765 15.592C150.753 15.124 152.261 14.89 154.289 14.89ZM153.249 18.088C153.249 18.9893 153.292 19.57 153.379 19.83C153.483 20.09 153.665 20.22 153.925 20.22C154.202 20.22 154.454 20.0033 154.679 19.57C154.922 19.1193 155.043 18.504 155.043 17.724V15.306H154.861C153.786 15.306 153.249 16.0947 153.249 17.672V18.088ZM163.238 17.282V9.092H161.808V8.624H163.238V5.27L168.074 4.074V8.624H171.454V9.092H168.074V17.854C168.074 18.6687 168.152 19.2667 168.308 19.648C168.481 20.0293 168.828 20.22 169.348 20.22C169.868 20.22 170.318 19.96 170.7 19.44C171.098 18.92 171.358 18.2093 171.48 17.308L171.922 17.36C171.783 18.556 171.402 19.5093 170.778 20.22C170.154 20.9133 169.122 21.26 167.684 21.26C166.245 21.26 165.144 20.974 164.382 20.402C163.619 19.83 163.238 18.79 163.238 17.282ZM179.008 21.26C176.772 21.26 175.091 20.688 173.964 19.544C172.855 18.3827 172.3 16.7793 172.3 14.734C172.3 12.6713 172.924 11.094 174.172 10.002C175.437 8.91 177.041 8.364 178.982 8.364C182.917 8.364 184.806 10.34 184.65 14.292H177.318V15.306C177.318 17.0047 177.535 18.2873 177.968 19.154C178.401 20.0207 179.155 20.454 180.23 20.454C182.241 20.454 183.558 19.3793 184.182 17.23L184.65 17.308C184.321 18.556 183.723 19.5267 182.856 20.22C182.007 20.9133 180.724 21.26 179.008 21.26ZM177.344 13.772H180.022V12.498C180.022 11.094 179.935 10.1407 179.762 9.638C179.606 9.118 179.277 8.858 178.774 8.858C178.289 8.858 177.925 9.13533 177.682 9.69C177.457 10.2273 177.344 11.1633 177.344 12.498V13.772ZM185.576 8.624H191.842V11.016C192.414 9.248 193.671 8.364 195.612 8.364C197.571 8.364 198.758 9.3 199.174 11.172C199.781 9.3 201.055 8.364 202.996 8.364C205.544 8.364 206.818 9.81133 206.818 12.706V20.532H208.274V21H201.072V20.532H201.982V12.082C201.982 10.7647 201.87 9.99333 201.644 9.768C201.54 9.664 201.402 9.612 201.228 9.612C200.726 9.612 200.284 9.95 199.902 10.626C199.521 11.302 199.33 12.16 199.33 13.2V20.532H200.266V21H193.584V20.532H194.494V12.082C194.494 10.7647 194.382 9.99333 194.156 9.768C194.052 9.664 193.914 9.612 193.74 9.612C193.255 9.612 192.813 9.98467 192.414 10.73C192.033 11.458 191.842 12.3333 191.842 13.356V20.532H192.778V21H185.576V20.532H187.006V9.092H185.576V8.624ZM215.494 21.26C213.258 21.26 211.577 20.688 210.45 19.544C209.341 18.3827 208.786 16.7793 208.786 14.734C208.786 12.6713 209.41 11.094 210.658 10.002C211.924 8.91 213.527 8.364 215.468 8.364C219.403 8.364 221.292 10.34 221.136 14.292H213.804V15.306C213.804 17.0047 214.021 18.2873 214.454 19.154C214.888 20.0207 215.642 20.454 216.716 20.454C218.727 20.454 220.044 19.3793 220.668 17.23L221.136 17.308C220.807 18.556 220.209 19.5267 219.342 20.22C218.493 20.9133 217.21 21.26 215.494 21.26ZM213.83 13.772H216.508V12.498C216.508 11.094 216.422 10.1407 216.248 9.638C216.092 9.118 215.763 8.858 215.26 8.858C214.775 8.858 214.411 9.13533 214.168 9.69C213.943 10.2273 213.83 11.1633 213.83 12.498V13.772ZM222.115 8.624H228.381V11.016C228.658 10.2187 229.083 9.57733 229.655 9.092C230.227 8.60667 231.093 8.364 232.255 8.364C234.941 8.364 236.285 9.81133 236.285 12.706V20.532H237.741V21H230.383V20.532H231.449V12.082C231.449 11.042 231.379 10.3747 231.241 10.08C231.102 9.768 230.851 9.612 230.487 9.612C229.932 9.612 229.438 9.976 229.005 10.704C228.589 11.432 228.381 12.316 228.381 13.356V20.532H229.499V21H222.115V20.532H223.545V9.092H222.115V8.624ZM239.257 17.282V9.092H237.827V8.624H239.257V5.27L244.093 4.074V8.624H247.473V9.092H244.093V17.854C244.093 18.6687 244.171 19.2667 244.327 19.648C244.501 20.0293 244.847 20.22 245.367 20.22C245.887 20.22 246.338 19.96 246.719 19.44C247.118 18.92 247.378 18.2093 247.499 17.308L247.941 17.36C247.803 18.556 247.421 19.5093 246.797 20.22C246.173 20.9133 245.142 21.26 243.703 21.26C242.265 21.26 241.164 20.974 240.401 20.402C239.639 19.83 239.257 18.79 239.257 17.282ZM261.26 15.878V13.668C261.26 11.9867 261.164 10.7647 260.974 10.002C260.8 9.222 260.384 8.832 259.726 8.832C259.344 8.832 259.032 8.94467 258.79 9.17C258.564 9.378 258.4 9.73333 258.296 10.236C258.14 11.016 258.062 12.2033 258.062 13.798V15.826C258.062 17.7153 258.114 18.8507 258.218 19.232C258.339 19.6133 258.46 19.9253 258.582 20.168C258.772 20.584 259.145 20.792 259.7 20.792C260.376 20.792 260.818 20.402 261.026 19.622C261.182 19.0673 261.26 17.8193 261.26 15.878ZM259.648 21.26C257.481 21.26 255.843 20.7053 254.734 19.596C253.624 18.4867 253.07 16.9007 253.07 14.838C253.07 12.758 253.659 11.1633 254.838 10.054C256.034 8.92733 257.706 8.364 259.856 8.364C262.005 8.364 263.608 8.884 264.666 9.924C265.723 10.9467 266.252 12.5153 266.252 14.63C266.252 19.05 264.05 21.26 259.648 21.26ZM274.857 1.344C274.198 1.344 273.765 1.59533 273.557 2.098C273.349 2.58333 273.245 3.372 273.245 4.464V8.624H276.677V9.092H273.245V20.532H276.417V21H266.979V20.532H268.409V9.092H266.901V8.624H268.409V8.52C268.409 6.024 268.885 4.13467 269.839 2.852C270.792 1.552 272.387 0.901998 274.623 0.901998C276.096 0.901998 277.153 1.19667 277.795 1.786C278.436 2.358 278.757 3.02533 278.757 3.788C278.757 4.55067 278.557 5.12267 278.159 5.504C277.76 5.88533 277.231 6.076 276.573 6.076C275.914 6.076 275.403 5.91133 275.039 5.582C274.692 5.23533 274.519 4.84533 274.519 4.412C274.519 3.96133 274.571 3.528 274.675 3.112H275.663C276.009 1.93333 275.741 1.344 274.857 1.344ZM282.904 17.282V9.092H281.474V8.624H282.904V5.27L287.74 4.074V8.624H291.12V9.092H287.74V17.854C287.74 18.6687 287.818 19.2667 287.974 19.648C288.147 20.0293 288.494 20.22 289.014 20.22C289.534 20.22 289.984 19.96 290.366 19.44C290.764 18.92 291.024 18.2093 291.146 17.308L291.588 17.36C291.449 18.556 291.068 19.5093 290.444 20.22C289.82 20.9133 288.788 21.26 287.35 21.26C285.911 21.26 284.81 20.974 284.048 20.402C283.285 19.83 282.904 18.79 282.904 17.282ZM295.658 6.83C294.74 6.83 294.081 6.596 293.682 6.128C293.301 5.66 293.11 5.07933 293.11 4.386C293.11 3.69267 293.318 3.12067 293.734 2.67C294.168 2.21933 294.818 1.994 295.684 1.994C296.551 1.994 297.21 2.202 297.66 2.618C298.111 3.01667 298.336 3.59733 298.336 4.36C298.336 5.10533 298.12 5.70333 297.686 6.154C297.253 6.60467 296.577 6.83 295.658 6.83ZM291.732 8.624H298.102V20.532H299.558V21H291.836V20.532H293.266V9.092H291.732V8.624ZM300.088 8.624H306.354V11.016C306.926 9.248 308.183 8.364 310.124 8.364C312.083 8.364 313.27 9.3 313.686 11.172C314.293 9.3 315.567 8.364 317.508 8.364C320.056 8.364 321.33 9.81133 321.33 12.706V20.532H322.786V21H315.584V20.532H316.494V12.082C316.494 10.7647 316.381 9.99333 316.156 9.768C316.052 9.664 315.913 9.612 315.74 9.612C315.237 9.612 314.795 9.95 314.414 10.626C314.033 11.302 313.842 12.16 313.842 13.2V20.532H314.778V21H308.096V20.532H309.006V12.082C309.006 10.7647 308.893 9.99333 308.668 9.768C308.564 9.664 308.425 9.612 308.252 9.612C307.767 9.612 307.325 9.98467 306.926 10.73C306.545 11.458 306.354 12.3333 306.354 13.356V20.532H307.29V21H300.088V20.532H301.518V9.092H300.088V8.624ZM330.006 21.26C327.77 21.26 326.089 20.688 324.962 19.544C323.853 18.3827 323.298 16.7793 323.298 14.734C323.298 12.6713 323.922 11.094 325.17 10.002C326.436 8.91 328.039 8.364 329.98 8.364C333.915 8.364 335.804 10.34 335.648 14.292H328.316V15.306C328.316 17.0047 328.533 18.2873 328.966 19.154C329.4 20.0207 330.154 20.454 331.228 20.454C333.239 20.454 334.556 19.3793 335.18 17.23L335.648 17.308C335.319 18.556 334.721 19.5267 333.854 20.22C333.005 20.9133 331.722 21.26 330.006 21.26ZM328.342 13.772H331.02V12.498C331.02 11.094 330.934 10.1407 330.76 9.638C330.604 9.118 330.275 8.858 329.772 8.858C329.287 8.858 328.923 9.13533 328.68 9.69C328.455 10.2273 328.342 11.1633 328.342 12.498V13.772ZM336.47 1.5H342.84V20.532H344.296V21H336.574V20.532H338.004V1.968H336.47V1.5ZM351.639 21.26C349.403 21.26 347.722 20.688 346.595 19.544C345.486 18.3827 344.931 16.7793 344.931 14.734C344.931 12.6713 345.555 11.094 346.803 10.002C348.068 8.91 349.672 8.364 351.613 8.364C355.548 8.364 357.437 10.34 357.281 14.292H349.949V15.306C349.949 17.0047 350.166 18.2873 350.599 19.154C351.032 20.0207 351.786 20.454 352.861 20.454C354.872 20.454 356.189 19.3793 356.813 17.23L357.281 17.308C356.952 18.556 356.354 19.5267 355.487 20.22C354.638 20.9133 353.355 21.26 351.639 21.26ZM349.975 13.772H352.653V12.498C352.653 11.094 352.566 10.1407 352.393 9.638C352.237 9.118 351.908 8.858 351.405 8.858C350.92 8.858 350.556 9.13533 350.313 9.69C350.088 10.2273 349.975 11.1633 349.975 12.498V13.772ZM358.551 21.26V16.606H358.863C359.314 18.114 359.921 19.1713 360.683 19.778C361.446 20.3847 362.399 20.688 363.543 20.688C365.311 20.688 366.195 20.1247 366.195 18.998C366.195 18.5127 365.979 18.1487 365.545 17.906C364.869 17.5247 364.003 17.23 362.945 17.022C361.767 16.71 360.779 16.294 359.981 15.774C359.028 15.15 358.551 14.162 358.551 12.81C358.551 11.458 358.967 10.3833 359.799 9.586C360.631 8.77133 361.741 8.364 363.127 8.364C363.977 8.364 364.852 8.56333 365.753 8.962C366.083 9.10067 366.334 9.17 366.507 9.17C366.681 9.17 366.828 9.10933 366.949 8.988C367.071 8.86667 367.218 8.64133 367.391 8.312H367.677V12.29H367.365C366.481 10.0367 365.112 8.91 363.257 8.91C362.443 8.91 361.836 9.05733 361.437 9.352C361.039 9.62933 360.839 9.98467 360.839 10.418C360.839 10.678 360.9 10.886 361.021 11.042C361.143 11.1807 361.238 11.2847 361.307 11.354C361.377 11.4233 361.489 11.5013 361.645 11.588C361.801 11.6573 361.931 11.718 362.035 11.77C362.139 11.8047 362.295 11.8567 362.503 11.926C362.729 11.9953 362.893 12.0387 362.997 12.056C364.176 12.3507 365.025 12.6107 365.545 12.836C366.065 13.044 366.559 13.304 367.027 13.616C367.981 14.2747 368.457 15.3407 368.457 16.814C368.457 18.27 368.024 19.3793 367.157 20.142C366.291 20.8873 365.103 21.26 363.595 21.26C362.521 21.26 361.481 21.0087 360.475 20.506C360.267 20.3673 360.103 20.298 359.981 20.298C359.6 20.298 359.227 20.6187 358.863 21.26H358.551ZM369.825 21.26V16.606H370.137C370.587 18.114 371.194 19.1713 371.957 19.778C372.719 20.3847 373.673 20.688 374.817 20.688C376.585 20.688 377.469 20.1247 377.469 18.998C377.469 18.5127 377.252 18.1487 376.819 17.906C376.143 17.5247 375.276 17.23 374.219 17.022C373.04 16.71 372.052 16.294 371.255 15.774C370.301 15.15 369.825 14.162 369.825 12.81C369.825 11.458 370.241 10.3833 371.073 9.586C371.905 8.77133 373.014 8.364 374.401 8.364C375.25 8.364 376.125 8.56333 377.027 8.962C377.356 9.10067 377.607 9.17 377.781 9.17C377.954 9.17 378.101 9.10933 378.223 8.988C378.344 8.86667 378.491 8.64133 378.665 8.312H378.951V12.29H378.639C377.755 10.0367 376.385 8.91 374.531 8.91C373.716 8.91 373.109 9.05733 372.711 9.352C372.312 9.62933 372.113 9.98467 372.113 10.418C372.113 10.678 372.173 10.886 372.295 11.042C372.416 11.1807 372.511 11.2847 372.581 11.354C372.65 11.4233 372.763 11.5013 372.919 11.588C373.075 11.6573 373.205 11.718 373.309 11.77C373.413 11.8047 373.569 11.8567 373.777 11.926C374.002 11.9953 374.167 12.0387 374.271 12.056C375.449 12.3507 376.299 12.6107 376.819 12.836C377.339 13.044 377.833 13.304 378.301 13.616C379.254 14.2747 379.731 15.3407 379.731 16.814C379.731 18.27 379.297 19.3793 378.431 20.142C377.564 20.8873 376.377 21.26 374.869 21.26C373.794 21.26 372.754 21.0087 371.749 20.506C371.541 20.3673 371.376 20.298 371.255 20.298C370.873 20.298 370.501 20.6187 370.137 21.26H369.825ZM385.77 21.26V16.606H386.082C386.533 18.114 387.139 19.1713 387.902 19.778C388.665 20.3847 389.618 20.688 390.762 20.688C392.53 20.688 393.414 20.1247 393.414 18.998C393.414 18.5127 393.197 18.1487 392.764 17.906C392.088 17.5247 391.221 17.23 390.164 17.022C388.985 16.71 387.997 16.294 387.2 15.774C386.247 15.15 385.77 14.162 385.77 12.81C385.77 11.458 386.186 10.3833 387.018 9.586C387.85 8.77133 388.959 8.364 390.346 8.364C391.195 8.364 392.071 8.56333 392.972 8.962C393.301 9.10067 393.553 9.17 393.726 9.17C393.899 9.17 394.047 9.10933 394.168 8.988C394.289 8.86667 394.437 8.64133 394.61 8.312H394.896V12.29H394.584C393.7 10.0367 392.331 8.91 390.476 8.91C389.661 8.91 389.055 9.05733 388.656 9.352C388.257 9.62933 388.058 9.98467 388.058 10.418C388.058 10.678 388.119 10.886 388.24 11.042C388.361 11.1807 388.457 11.2847 388.526 11.354C388.595 11.4233 388.708 11.5013 388.864 11.588C389.02 11.6573 389.15 11.718 389.254 11.77C389.358 11.8047 389.514 11.8567 389.722 11.926C389.947 11.9953 390.112 12.0387 390.216 12.056C391.395 12.3507 392.244 12.6107 392.764 12.836C393.284 13.044 393.778 13.304 394.246 13.616C395.199 14.2747 395.676 15.3407 395.676 16.814C395.676 18.27 395.243 19.3793 394.376 20.142C393.509 20.8873 392.322 21.26 390.814 21.26C389.739 21.26 388.699 21.0087 387.694 20.506C387.486 20.3673 387.321 20.298 387.2 20.298C386.819 20.298 386.446 20.6187 386.082 21.26H385.77ZM397.492 17.282V9.092H396.062V8.624H397.492V5.27L402.328 4.074V8.624H405.708V9.092H402.328V17.854C402.328 18.6687 402.406 19.2667 402.562 19.648C402.735 20.0293 403.082 20.22 403.602 20.22C404.122 20.22 404.572 19.96 404.954 19.44C405.352 18.92 405.612 18.2093 405.734 17.308L406.176 17.36C406.037 18.556 405.656 19.5093 405.032 20.22C404.408 20.9133 403.376 21.26 401.938 21.26C400.499 21.26 399.398 20.974 398.636 20.402C397.873 19.83 397.492 18.79 397.492 17.282ZM406.04 9.092V8.624H413.58V9.092H412.176L415.01 17.724L418.026 9.092H416.284V8.624H419.95V9.092H418.65L413.788 23.106C413.216 24.7353 412.575 25.8707 411.864 26.512C411.153 27.1707 410.287 27.5 409.264 27.5C408.241 27.5 407.435 27.266 406.846 26.798C406.257 26.33 405.962 25.732 405.962 25.004C405.962 24.276 406.153 23.7213 406.534 23.34C406.915 22.9587 407.418 22.768 408.042 22.768C409.481 22.768 410.2 23.366 410.2 24.562C410.2 24.822 410.148 25.134 410.044 25.498H409.134C408.995 25.8967 408.978 26.226 409.082 26.486C409.186 26.746 409.42 26.876 409.784 26.876C410.495 26.876 411.127 26.5207 411.682 25.81C412.237 25.1167 412.765 24.0507 413.268 22.612L413.84 21H411.552L407.106 9.092H406.04ZM419.523 1.5H425.893V20.532H427.349V21H419.627V20.532H421.057V1.968H419.523V1.5ZM434.692 21.26C432.456 21.26 430.774 20.688 429.648 19.544C428.538 18.3827 427.984 16.7793 427.984 14.734C427.984 12.6713 428.608 11.094 429.856 10.002C431.121 8.91 432.724 8.364 434.666 8.364C438.6 8.364 440.49 10.34 440.334 14.292H433.002V15.306C433.002 17.0047 433.218 18.2873 433.652 19.154C434.085 20.0207 434.839 20.454 435.914 20.454C437.924 20.454 439.242 19.3793 439.866 17.23L440.334 17.308C440.004 18.556 439.406 19.5267 438.54 20.22C437.69 20.9133 436.408 21.26 434.692 21.26ZM433.028 13.772H435.706V12.498C435.706 11.094 435.619 10.1407 435.446 9.638C435.29 9.118 434.96 8.858 434.458 8.858C433.972 8.858 433.608 9.13533 433.366 9.69C433.14 10.2273 433.028 11.1633 433.028 12.498V13.772Z" fill="#B9BBC1"/>
</svg>
